<?xml version="1.0" standalone="no"?>
<!DOCTYPE svg PUBLIC "-//W3C//DTD SVG 20010904//EN"
 "http://www.w3.org/TR/2001/REC-SVG-20010904/DTD/svg10.dtd">
<svg version="1.0" xmlns="http://www.w3.org/2000/svg"
 width="84.000000pt" height="84.000000pt" viewBox="0 0 84.000000 84.000000"
 preserveAspectRatio="xMidYMid meet">
<metadata>
Created by potrace 1.14, written by Peter Selinger 2001-2017
</metadata>
<g transform="translate(0.000000,84.000000) scale(0.100000,-0.100000)"
fill="#000000" stroke="none">
<path d="M335 826 c-18 -13 -17 -14 8 -30 14 -10 36 -16 49 -14 21 3 23 -1 25
-43 2 -43 -1 -50 -45 -97 l-48 -51 -50 50 -51 50 -58 -54 c-31 -30 -56 -60
-54 -65 2 -6 51 -59 108 -117 l104 -107 51 51 51 51 51 -51 52 -51 110 113
111 114 -61 58 -62 58 -50 -50 -50 -50 -48 51 c-44 46 -48 55 -48 99 0 48 1
49 25 43 25 -6 75 17 75 35 0 20 -46 20 -72 1 -34 -25 -40 -25 -63 0 -21 24
-34 25 -60 6z m-16 -267 l88 -91 -38 -39 c-20 -21 -42 -39 -47 -39 -5 0 -48
41 -97 91 l-88 90 39 40 c21 21 42 39 47 39 4 0 48 -41 96 -91z m355 52 l39
-40 -88 -90 c-49 -50 -92 -91 -96 -91 -5 0 -26 17 -48 39 l-39 38 87 91 c47
50 91 91 96 91 6 1 28 -17 49 -38z"/>
<path d="M105 313 c-8 -21 12 -42 36 -38 16 3 19 -1 16 -22 -5 -39 -67 -54
-67 -17 0 9 -11 14 -30 14 -62 0 -21 -79 43 -81 67 -3 107 15 107 48 0 7 5 13
10 13 6 0 10 -7 10 -15 0 -31 52 -50 128 -46 30 1 62 35 62 66 0 27 9 32 28
13 6 -6 22 -13 34 -15 68 -9 80 -12 86 -19 4 -4 -13 -4 -38 0 -91 14 -100 14
-100 0 0 -21 29 -44 58 -45 90 -4 129 4 137 31 9 27 -3 60 -21 60 -8 0 -12 5
-9 10 4 6 11 8 16 5 16 -10 10 22 -7 36 -19 16 -109 21 -142 8 -12 -5 -27 -19
-32 -31 -9 -20 -10 -21 -9 -3 2 36 -1 41 -26 43 -25 2 -33 -12 -33 -66 -1 -34
-18 -50 -47 -44 -25 4 -27 8 -29 72 l-1 35 -87 1 c-69 1 -88 -1 -93 -13z m443
-40 c-10 -2 -28 -2 -40 0 -13 2 -5 4 17 4 22 1 32 -1 23 -4z"/>
<path d="M630 304 c0 -13 6 -25 13 -25 6 -1 17 -2 22 -4 6 -1 15 -3 21 -3 6
-1 10 -22 9 -52 l-2 -50 32 0 c32 0 32 1 30 45 -2 49 8 63 43 60 18 -1 22 3
22 25 l0 26 -95 1 c-93 0 -95 0 -95 -23z"/>
<path d="M30 102 c0 -21 5 -28 20 -28 11 0 20 7 20 15 0 12 3 11 13 -3 17 -23
51 -12 37 14 -5 9 -6 20 -3 24 3 3 0 6 -8 6 -8 0 -20 -5 -27 -12 -9 -9 -12 -9
-12 0 0 7 -9 12 -20 12 -15 0 -20 -7 -20 -28z"/>
<path d="M140 114 c-18 -21 13 -55 32 -36 9 9 8 12 -5 12 -9 0 -17 5 -17 10 0
6 7 10 16 10 8 0 12 5 9 10 -9 14 -21 12 -35 -6z"/>
<path d="M195 112 c3 -7 5 -21 5 -30 1 -15 3 -14 15 2 21 27 19 42 -5 42 -13
0 -19 -5 -15 -14z"/>
<path d="M240 110 c-8 -15 -6 -21 9 -30 13 -7 22 -7 26 0 3 5 -1 10 -9 10 -9
0 -16 5 -16 10 0 6 7 10 15 10 8 0 15 5 15 10 0 18 -29 11 -40 -10z"/>
<path d="M296 118 c-14 -31 0 -47 41 -45 34 1 38 4 39 29 1 21 -4 28 -17 28
-12 0 -19 -7 -19 -20 0 -27 -28 -25 -33 3 -3 19 -4 20 -11 5z"/>
<path d="M411 105 c-1 -24 4 -31 19 -32 11 -1 20 3 20 9 0 6 6 6 15 -2 8 -7
15 -9 16 -4 0 5 2 17 4 26 2 10 -1 20 -6 24 -5 3 -9 0 -9 -7 0 -8 -4 -8 -16 2
-13 10 -17 10 -24 0 -6 -11 -9 -11 -13 0 -3 8 -6 0 -6 -16z"/>
<path d="M499 120 c0 -3 -2 -15 -5 -27 -2 -13 1 -23 6 -23 6 0 10 9 10 19 0
11 5 23 10 26 6 4 10 -5 10 -19 0 -14 5 -26 10 -26 6 0 10 6 10 14 0 8 3 22 6
30 5 13 0 16 -25 14 -17 -1 -31 -5 -32 -8z"/>
<path d="M571 100 c0 -33 1 -34 10 -11 6 16 6 28 -1 35 -7 7 -10 -1 -9 -24z"/>
<path d="M600 111 c-15 -30 -12 -36 19 -37 28 -1 28 0 19 27 -12 34 -23 37
-38 10z"/>
<path d="M658 105 c6 -31 22 -43 22 -16 0 31 18 34 22 4 4 -23 6 -25 12 -11
13 28 -1 48 -32 48 -26 0 -29 -3 -24 -25z"/>
<path d="M732 98 l11 -31 17 21 c17 21 18 21 23 2 3 -11 13 -20 22 -20 15 0
16 2 4 17 -8 10 -9 14 -2 10 8 -5 11 0 10 13 -1 21 -27 24 -56 5 -10 -5 -16
-4 -19 3 -2 7 -8 12 -12 12 -5 0 -4 -14 2 -32z"/>
<path d="M220 27 c0 -2 6 -10 14 -16 11 -9 16 -9 22 1 4 7 4 10 -1 6 -4 -4
-14 -3 -22 3 -7 6 -13 9 -13 6z"/>
<path d="M316 21 c-19 -7 -19 -8 0 -13 13 -3 21 0 21 8 0 8 -1 14 -1 13 -1 0
-10 -4 -20 -8z"/>
<path d="M459 18 c7 -10 23 -17 35 -17 20 1 20 2 1 6 -11 3 -27 10 -35 17 -13
10 -13 9 -1 -6z"/>
<path d="M571 17 c-8 -10 -7 -14 2 -14 8 0 14 6 14 14 0 7 -1 13 -2 13 -2 0
-8 -6 -14 -13z"/>
<path d="M690 22 c0 -5 -14 -8 -30 -7 -17 1 -32 0 -34 -4 -3 -4 15 -7 40 -7
42 0 55 8 34 21 -5 3 -10 2 -10 -3z"/>
<path d="M750 20 c0 -5 5 -10 11 -10 5 0 7 5 4 10 -3 6 -8 10 -11 10 -2 0 -4
-4 -4 -10z"/>
<path d="M136 12 c-3 -5 1 -9 9 -9 8 0 12 4 9 9 -3 4 -7 8 -9 8 -2 0 -6 -4 -9
-8z"/>
<path d="M170 9 c0 -5 5 -7 10 -4 6 3 10 8 10 11 0 2 -4 4 -10 4 -5 0 -10 -5
-10 -11z"/>
<path d="M416 12 c-3 -4 4 -9 15 -9 23 -2 25 3 4 10 -8 4 -16 3 -19 -1z"/>
</g>
</svg>
